<svg xmlns="http://www.w3.org/2000/svg" viewBox="0 0 422.5 422.5"><defs><style>.cls-1{fill:#a3985d;}.cls-2{fill:none;stroke:#a3985d;stroke-miterlimit:10;stroke-width:6px;}</style></defs><g id="Ebene_2" data-name="Ebene 2"><g id="Bild-Slider"><rect class="cls-1" x="162.11" y="208.03" width="120.18" height="6.14" rx="1.54"/><circle class="cls-2" cx="211.25" cy="211.25" r="208.25"/><path class="cls-1" d="M189,247.77l-29.71-35.22a2.24,2.24,0,0,1,0-2.84L189,173.05a2.21,2.21,0,0,1,3.12-.33l1.32,1.07a2.21,2.21,0,0,1,.32,3.12l-26.53,32.73a2.22,2.22,0,0,0,0,2.83l26.43,31.34a2.22,2.22,0,0,1-.26,3.13l-1.3,1.09A2.21,2.21,0,0,1,189,247.77Z"/></g></g></svg>